STARTFONT 2.1
FONT -FontForge-Indie Flower-Book-R-Normal--24-240-72-72-P-111-ISO10646-1
SIZE 24 72 72
FONTBOUNDINGBOX 29 36 -3 -12
COMMENT "Generated by fontforge, http://fontforge.sourceforge.net"
COMMENT "Copyright (c) 2010, Kimberly Geswein (kimberlygeswein.com)"
STARTPROPERTIES 39
FOUNDRY "FontForge"
FAMILY_NAME "Indie Flower"
WEIGHT_NAME "Book"
SLANT "R"
SETWIDTH_NAME "Normal"
ADD_STYLE_NAME ""
PIXEL_SIZE 24
POINT_SIZE 240
RESOLUTION_X 72
RESOLUTION_Y 72
SPACING "P"
AVERAGE_WIDTH 111
CHARSET_REGISTRY "ISO10646"
CHARSET_ENCODING "1"
FONTNAME_REGISTRY ""
CHARSET_COLLECTIONS "ISO8859-2 ISO8859-9 ISO8859-4 ISO10646-1"
FONT_NAME "IndieFlower"
FACE_NAME "Indie Flower"
COPYRIGHT "Copyright (c) 2010, Kimberly Geswein (kimberlygeswein.com)"
FONT_VERSION "1.001 2010"
FONT_ASCENT 19
FONT_DESCENT 5
UNDERLINE_POSITION -2
UNDERLINE_THICKNESS 2
X_HEIGHT 8
CAP_HEIGHT 12
RAW_ASCENT 799
RAW_DESCENT 200
NORM_SPACE 9
RELATIVE_WEIGHT 40
RELATIVE_SETWIDTH 50
SUPERSCRIPT_X 0
SUPERSCRIPT_Y 11
SUPERSCRIPT_SIZE 15
SUBSCRIPT_X 0
SUBSCRIPT_Y 3
SUBSCRIPT_SIZE 15
AVG_LOWERCASE_WIDTH 107
AVG_UPPERCASE_WIDTH 130
ENDPROPERTIES
CHARS 356
STARTCHAR space
ENCODING 32
SWIDTH 375 0
DWIDTH 9 0
BBX 1 1 0 0
BITMAP
00
ENDCHAR
STARTCHAR exclam
ENCODING 33
SWIDTH 149 0
DWIDTH 4 0
BBX 3 20 0 0
BITMAP
40
40
40
40
40
40
40
40
40
40
40
40
40
40
00
00
00
00
E0
60
ENDCHAR
STARTCHAR quotedbl
ENCODING 34
SWIDTH 234 0
DWIDTH 6 0
BBX 5 7 0 12
BITMAP
10
98
D8
58
58
48
68
ENDCHAR
STARTCHAR numbersign
ENCODING 35
SWIDTH 768 0
DWIDTH 18 0
BBX 18 12 0 0
BITMAP
012000
013000
011000
01BF00
07F980
7D9000
E19FC0
01FFC0
3F9800
009800
009800
001000
ENDCHAR
STARTCHAR dollar
ENCODING 36
SWIDTH 581 0
DWIDTH 14 0
BBX 14 22 0 0
BITMAP
0120
0120
0160
01E0
07E0
0F70
0940
0B40
0740
0340
03C0
03E0
0290
0288
0288
C28C
6788
1F88
0798
07F0
0780
0580
ENDCHAR
STARTCHAR percent
ENCODING 37
SWIDTH 636 0
DWIDTH 15 0
BBX 15 15 0 0
BITMAP
0008
0018
3810
6C20
C440
C480
4C80
3900
031C
0224
0646
0C46
0C44
0878
1030
ENDCHAR
STARTCHAR ampersand
ENCODING 38
SWIDTH 457 0
DWIDTH 11 0
BBX 11 17 0 0
BITMAP
0800
0C00
0C00
1C00
1C00
1C00
1800
19C0
19E0
3900
2D00
6700
4600
C600
CD00
D880
7080
ENDCHAR
STARTCHAR quotesingle
ENCODING 39
SWIDTH 102 0
DWIDTH 2 0
BBX 2 6 0 12
BITMAP
80
C0
C0
40
40
40
ENDCHAR
STARTCHAR parenleft
ENCODING 40
SWIDTH 421 0
DWIDTH 10 0
BBX 10 15 0 -1
BITMAP
0180
0740
0C00
1800
3000
2000
6000
4000
4000
C000
4000
4000
6000
3800
1E00
ENDCHAR
STARTCHAR parenright
ENCODING 41
SWIDTH 290 0
DWIDTH 7 0
BBX 7 15 0 -1
BITMAP
70
18
08
0C
04
04
06
04
04
0C
08
18
30
60
E0
ENDCHAR
STARTCHAR asterisk
ENCODING 42
SWIDTH 412 0
DWIDTH 10 0
BBX 9 10 0 5
BITMAP
0080
4980
3B00
1F00
7F80
BE00
2700
2700
0680
0400
ENDCHAR
STARTCHAR plus
ENCODING 43
SWIDTH 459 0
DWIDTH 11 0
BBX 11 10 0 0
BITMAP
0800
0800
0C00
0C00
3FE0
FFC0
0400
0400
0400
0400
ENDCHAR
STARTCHAR comma
ENCODING 44
SWIDTH 130 0
DWIDTH 3 0
BBX 2 8 0 -5
BITMAP
C0
40
40
40
40
C0
C0
80
ENDCHAR
STARTCHAR hyphen
ENCODING 45
SWIDTH 375 0
DWIDTH 9 0
BBX 8 2 0 6
BITMAP
3E
FF
ENDCHAR
STARTCHAR period
ENCODING 46
SWIDTH 204 0
DWIDTH 5 0
BBX 3 5 1 0
BITMAP
80
60
E0
E0
40
ENDCHAR
STARTCHAR slash
ENCODING 47
SWIDTH 309 0
DWIDTH 7 0
BBX 7 18 0 0
BITMAP
02
02
02
04
04
04
0C
08
18
18
10
30
30
20
60
40
C0
80
ENDCHAR
STARTCHAR zero
ENCODING 48
SWIDTH 430 0
DWIDTH 10 0
BBX 10 10 0 0
BITMAP
0E00
3F00
6180
4080
C0C0
C0C0
40C0
4180
3B80
1E00
ENDCHAR
STARTCHAR one
ENCODING 49
SWIDTH 318 0
DWIDTH 8 0
BBX 7 14 0 0
BITMAP
02
02
06
06
0E
1E
34
64
C4
0C
0C
0C
0C
08
ENDCHAR
STARTCHAR two
ENCODING 50
SWIDTH 497 0
DWIDTH 12 0
BBX 11 13 0 0
BITMAP
0380
04C0
0440
0840
0040
0040
0040
00C0
00C0
4080
FF00
7FC0
30E0
ENDCHAR
STARTCHAR three
ENCODING 51
SWIDTH 430 0
DWIDTH 10 0
BBX 10 13 0 0
BITMAP
3C00
7F00
0100
0100
0600
3C00
1F00
0380
0080
C0C0
60C0
3980
0F00
ENDCHAR
STARTCHAR four
ENCODING 52
SWIDTH 412 0
DWIDTH 10 0
BBX 9 14 0 0
BITMAP
6000
6000
4000
4080
C080
C180
4180
4380
7F80
3D80
0080
0080
0080
0080
ENDCHAR
STARTCHAR five
ENCODING 53
SWIDTH 571 0
DWIDTH 14 0
BBX 13 16 0 0
BITMAP
03F0
0FF8
0400
0C00
0800
1800
1F00
03C0
0060
0020
0030
8030
8030
4060
7FE0
1F80
ENDCHAR
STARTCHAR six
ENCODING 54
SWIDTH 440 0
DWIDTH 11 0
BBX 10 14 0 0
BITMAP
03C0
0C40
1800
3000
2000
6000
7F00
6180
C0C0
C040
40C0
60C0
7F80
3E00
ENDCHAR
STARTCHAR seven
ENCODING 55
SWIDTH 412 0
DWIDTH 10 0
BBX 8 13 1 0
BITMAP
FC
7C
04
04
04
04
7F
0D
0C
08
08
18
18
ENDCHAR
STARTCHAR eight
ENCODING 56
SWIDTH 375 0
DWIDTH 9 0
BBX 8 14 0 0
BITMAP
18
3E
46
C6
44
68
18
3C
62
63
61
61
31
0E
ENDCHAR
STARTCHAR nine
ENCODING 57
SWIDTH 300 0
DWIDTH 7 0
BBX 7 14 0 0
BITMAP
38
44
C6
C6
C6
46
3E
04
04
04
04
04
04
04
ENDCHAR
STARTCHAR colon
ENCODING 58
SWIDTH 84 0
DWIDTH 2 0
BBX 2 6 0 2
BITMAP
C0
40
00
00
00
C0
ENDCHAR
STARTCHAR semicolon
ENCODING 59
SWIDTH 128 0
DWIDTH 3 0
BBX 2 13 0 -4
BITMAP
C0
40
00
00
00
00
40
40
40
40
C0
C0
80
ENDCHAR
STARTCHAR less
ENCODING 60
SWIDTH 487 0
DWIDTH 12 0
BBX 11 10 0 0
BITMAP
0060
00C0
0380
0600
0C00
3000
6000
F800
3F80
00C0
ENDCHAR
STARTCHAR equal
ENCODING 61
SWIDTH 524 0
DWIDTH 13 0
BBX 12 6 0 3
BITMAP
7FF0
8010
0000
0000
07C0
FFE0
ENDCHAR
STARTCHAR greater
ENCODING 62
SWIDTH 403 0
DWIDTH 10 0
BBX 9 11 1 0
BITMAP
C000
E000
3C00
0700
0380
0300
0E00
1800
3000
C000
8000
ENDCHAR
STARTCHAR question
ENCODING 63
SWIDTH 272 0
DWIDTH 7 0
BBX 6 21 0 0
BITMAP
60
F8
8C
04
04
0C
0C
08
18
30
30
20
3C
1C
00
00
00
00
00
0C
0C
ENDCHAR
STARTCHAR at
ENCODING 64
SWIDTH 815 0
DWIDTH 20 0
BBX 19 21 0 0
BITMAP
03F800
0C0E00
180300
300180
2000C0
400060
40F860
818E20
830220
820C20
460C60
440C60
440C40
661FC0
233380
31E000
180000
0C0000
060000
0383C0
00FF00
ENDCHAR
STARTCHAR A
ENCODING 65
SWIDTH 562 0
DWIDTH 14 0
BBX 13 18 0 0
BITMAP
0F80
10C0
2040
2020
2020
4030
4010
4010
4010
4010
7FF8
C018
4018
6018
6018
6018
2018
2010
ENDCHAR
STARTCHAR B
ENCODING 66
SWIDTH 741 0
DWIDTH 18 0
BBX 17 17 0 0
BITMAP
030000
7FE000
CC3000
041800
041800
061000
06E000
02F000
023800
020E00
030300
030180
030080
010080
030180
07C380
00FE00
ENDCHAR
STARTCHAR C
ENCODING 67
SWIDTH 515 0
DWIDTH 12 0
BBX 12 16 0 0
BITMAP
0100
0780
0C80
1880
3000
2000
4000
4000
4000
C000
C000
4000
4000
6000
3FF0
1F00
ENDCHAR
STARTCHAR D
ENCODING 68
SWIDTH 741 0
DWIDTH 18 0
BBX 17 15 0 0
BITMAP
3F8000
E1F000
011800
018E00
018300
008100
008180
008080
008080
008080
00C180
00C180
008300
030E00
01F800
ENDCHAR
STARTCHAR E
ENCODING 69
SWIDTH 524 0
DWIDTH 13 0
BBX 11 15 0 0
BITMAP
7FC0
7F20
4000
4000
4000
4020
7FC0
E000
4000
4000
C000
C000
C000
7FE0
3FC0
ENDCHAR
STARTCHAR F
ENCODING 70
SWIDTH 514 0
DWIDTH 12 0
BBX 16 14 -1 0
BITMAP
7FFC
8C0E
0C01
0C00
0C00
0C00
0FE0
3FF0
0400
0400
0600
0600
0600
0200
ENDCHAR
STARTCHAR G
ENCODING 71
SWIDTH 571 0
DWIDTH 14 0
BBX 12 15 1 -2
BITMAP
0040
03E0
0C10
3000
6000
4000
87E0
8030
8030
8030
C070
7FF0
3C30
0030
0010
ENDCHAR
STARTCHAR H
ENCODING 72
SWIDTH 524 0
DWIDTH 13 0
BBX 12 16 0 0
BITMAP
4020
4020
4020
4020
4020
4020
4060
61E0
6720
7C20
E020
2020
2020
2030
2030
2010
ENDCHAR
STARTCHAR I
ENCODING 73
SWIDTH 167 0
DWIDTH 4 0
BBX 4 13 0 0
BITMAP
80
40
40
40
60
60
20
20
20
20
20
30
30
ENDCHAR
STARTCHAR J
ENCODING 74
SWIDTH 439 0
DWIDTH 11 0
BBX 9 17 1 0
BITMAP
0200
0100
0100
0100
0100
0180
0180
0180
8080
8080
8080
8080
4080
2080
1180
0D80
0700
ENDCHAR
STARTCHAR K
ENCODING 75
SWIDTH 468 0
DWIDTH 11 0
BBX 11 14 0 0
BITMAP
8100
C600
4400
4800
5800
7000
6000
6000
7000
5800
4E00
6300
61C0
2060
ENDCHAR
STARTCHAR L
ENCODING 76
SWIDTH 346 0
DWIDTH 8 0
BBX 8 13 0 0
BITMAP
40
60
40
40
40
40
40
40
C0
C0
40
7C
3F
ENDCHAR
STARTCHAR M
ENCODING 77
SWIDTH 534 0
DWIDTH 13 0
BBX 12 15 0 0
BITMAP
8020
6020
6060
3060
38E0
2FE0
6020
6020
6020
6020
6030
6030
6030
6030
0010
ENDCHAR
STARTCHAR N
ENCODING 78
SWIDTH 609 0
DWIDTH 15 0
BBX 13 13 1 0
BITMAP
8000
8060
C060
C030
C030
E010
E018
B008
9008
9818
8C10
87F0
81C0
ENDCHAR
STARTCHAR O
ENCODING 79
SWIDTH 609 0
DWIDTH 15 0
BBX 14 12 0 0
BITMAP
0C00
3F80
60E0
4030
C018
C008
400C
4004
600C
3008
1C70
0FC0
ENDCHAR
STARTCHAR P
ENCODING 80
SWIDTH 627 0
DWIDTH 15 0
BBX 15 14 0 0
BITMAP
7FC0
C070
801C
0204
0206
0206
0204
021C
03F0
0380
0300
0300
0100
0100
ENDCHAR
STARTCHAR Q
ENCODING 81
SWIDTH 642 0
DWIDTH 15 0
BBX 15 16 1 -3
BITMAP
1E00
3F80
41C0
80E0
81B0
8018
8008
820C
8304
C18C
6198
3FF0
0FE0
0010
000C
0006
ENDCHAR
STARTCHAR R
ENCODING 82
SWIDTH 579 0
DWIDTH 14 0
BBX 13 16 0 -1
BITMAP
7F80
E1E0
8030
9018
1018
1070
17E0
1F00
1800
1C00
0E00
0B00
0980
08C0
0830
0018
ENDCHAR
STARTCHAR S
ENCODING 83
SWIDTH 627 0
DWIDTH 15 0
BBX 14 14 0 0
BITMAP
0FF0
1818
1000
1800
0C00
0600
01C0
0070
4038
C00C
4004
6004
180C
07F8
ENDCHAR
STARTCHAR T
ENCODING 84
SWIDTH 581 0
DWIDTH 14 0
BBX 16 14 0 0
BITMAP
FFFC
018F
0180
0080
0080
0080
0080
0080
0080
00C0
00C0
00C0
0040
0060
ENDCHAR
STARTCHAR U
ENCODING 85
SWIDTH 571 0
DWIDTH 14 0
BBX 12 13 1 0
BITMAP
C040
8040
8040
8040
8040
8040
8060
8020
C060
4070
60F0
3F10
1C00
ENDCHAR
STARTCHAR V
ENCODING 86
SWIDTH 421 0
DWIDTH 10 0
BBX 9 12 0 0
BITMAP
C080
6080
6080
2080
3180
3180
1980
1900
0D00
0F00
0600
0600
ENDCHAR
STARTCHAR W
ENCODING 87
SWIDTH 703 0
DWIDTH 17 0
BBX 16 12 0 0
BITMAP
8004
C006
C006
C003
C203
C101
4101
4181
4381
66C3
3C7E
183C
ENDCHAR
STARTCHAR X
ENCODING 88
SWIDTH 534 0
DWIDTH 13 0
BBX 13 14 0 -1
BITMAP
2000
2018
1060
18C0
0980
0F00
0600
0E00
1B00
3100
2180
60C0
4040
C000
ENDCHAR
STARTCHAR Y
ENCODING 89
SWIDTH 403 0
DWIDTH 10 0
BBX 9 15 0 0
BITMAP
C080
4080
6080
3180
1980
0F00
0300
0200
0200
0600
0400
0400
0400
0400
0400
ENDCHAR
STARTCHAR Z
ENCODING 90
SWIDTH 571 0
DWIDTH 14 0
BBX 13 15 0 0
BITMAP
7E00
E300
0080
00C0
00C0
0080
0080
0FF0
1F80
0300
0200
0400
0C00
0CF8
0FE0
ENDCHAR
STARTCHAR bracketleft
ENCODING 91
SWIDTH 477 0
DWIDTH 11 0
BBX 13 19 0 -2
BITMAP
00E0
0F80
7800
C000
4000
4000
6000
2000
2000
2000
2000
3000
1000
1000
1000
1000
1000
1FF8
1FF8
ENDCHAR
STARTCHAR backslash
ENCODING 92
SWIDTH 430 0
DWIDTH 10 0
BBX 10 13 0 0
BITMAP
8000
4000
6000
3000
1800
0C00
0E00
0600
0300
0180
0080
00C0
00C0
ENDCHAR
STARTCHAR bracketright
ENCODING 93
SWIDTH 430 0
DWIDTH 10 0
BBX 10 22 0 -2
BITMAP
F800
3F00
0100
0180
0180
0080
0080
0080
0080
0080
0080
0080
0080
0080
00C0
00C0
00C0
00C0
00C0
00C0
3FC0
3FC0
ENDCHAR
STARTCHAR asciicircum
ENCODING 94
SWIDTH 375 0
DWIDTH 9 0
BBX 7 5 1 13
BITMAP
10
18
3C
6C
C6
ENDCHAR
STARTCHAR underscore
ENCODING 95
SWIDTH 656 0
DWIDTH 16 0
BBX 14 2 1 0
BITMAP
FFFC
03FC
ENDCHAR
STARTCHAR grave
ENCODING 96
SWIDTH 172 0
DWIDTH 4 0
BBX 4 3 0 10
BITMAP
C0
30
20
ENDCHAR
STARTCHAR a
ENCODING 97
SWIDTH 505 0
DWIDTH 12 0
BBX 11 12 0 0
BITMAP
0E00
1B00
0180
00C0
0040
3FE0
60E0
4060
C020
4020
7FE0
1F80
ENDCHAR
STARTCHAR b
ENCODING 98
SWIDTH 497 0
DWIDTH 12 0
BBX 11 15 0 0
BITMAP
C000
C000
C000
4000
4000
4000
4000
7F00
73C0
6060
2020
2020
3020
3CE0
0FC0
ENDCHAR
STARTCHAR c
ENCODING 99
SWIDTH 449 0
DWIDTH 11 0
BBX 10 11 0 0
BITMAP
1F00
3100
6180
4100
4000
C000
C000
4000
6000
3800
1FC0
ENDCHAR
STARTCHAR d
ENCODING 100
SWIDTH 524 0
DWIDTH 13 0
BBX 12 17 0 0
BITMAP
0080
00C0
00C0
00C0
0060
0060
1C60
3F60
61E0
4060
4060
C060
4070
40F0
61B0
3F10
1C00
ENDCHAR
STARTCHAR e
ENCODING 101
SWIDTH 515 0
DWIDTH 12 0
BBX 12 12 0 0
BITMAP
1F00
2180
6080
4080
4100
C700
FC00
4000
4000
2000
1FF0
0FC0
ENDCHAR
STARTCHAR f
ENCODING 102
SWIDTH 376 0
DWIDTH 9 0
BBX 11 17 0 0
BITMAP
0700
0FC0
1860
1020
3000
2000
3000
3000
3000
7E00
DF00
1800
0800
0C00
0400
0600
0200
ENDCHAR
STARTCHAR g
ENCODING 103
SWIDTH 366 0
DWIDTH 9 0
BBX 12 22 -3 -12
BITMAP
01C0
03C0
0460
0820
0820
1820
1860
0CE0
0FE0
0230
0030
0030
0030
0030
0030
8030
8030
8030
6020
3860
1FC0
0380
ENDCHAR
STARTCHAR h
ENCODING 104
SWIDTH 427 0
DWIDTH 10 0
BBX 9 17 0 0
BITMAP
8000
8000
8000
C000
4000
4000
5C00
7F00
6100
4180
6080
6080
6080
2080
2080
2080
2080
ENDCHAR
STARTCHAR i
ENCODING 105
SWIDTH 174 0
DWIDTH 4 0
BBX 4 14 0 0
BITMAP
C0
00
00
40
60
60
60
20
20
20
30
30
30
30
ENDCHAR
STARTCHAR j
ENCODING 106
SWIDTH 200 0
DWIDTH 5 0
BBX 8 25 -3 -11
BITMAP
08
08
00
00
00
04
04
06
06
02
02
03
03
03
03
01
01
C1
41
61
61
31
19
0F
02
ENDCHAR
STARTCHAR k
ENCODING 107
SWIDTH 403 0
DWIDTH 10 0
BBX 10 15 0 0
BITMAP
8000
8000
8000
C000
4300
4600
4400
4800
7000
7000
6000
7000
7800
6780
63C0
ENDCHAR
STARTCHAR l
ENCODING 108
SWIDTH 120 0
DWIDTH 3 0
BBX 1 14 1 0
BITMAP
80
80
80
80
80
80
80
80
80
80
80
80
80
80
ENDCHAR
STARTCHAR m
ENCODING 109
SWIDTH 750 0
DWIDTH 18 0
BBX 16 10 1 0
BITMAP
003C
FC76
C6C2
C383
8301
8101
8181
8181
8081
8001
ENDCHAR
STARTCHAR n
ENCODING 110
SWIDTH 459 0
DWIDTH 11 0
BBX 10 11 1 0
BITMAP
1C00
F700
C300
C180
8180
8080
8080
C0C0
C0C0
40C0
4080
ENDCHAR
STARTCHAR o
ENCODING 111
SWIDTH 487 0
DWIDTH 12 0
BBX 11 10 0 0
BITMAP
0F00
3DC0
60C0
4060
C020
C020
4060
60C0
3380
1F00
ENDCHAR
STARTCHAR p
ENCODING 112
SWIDTH 520 0
DWIDTH 13 0
BBX 12 17 0 -9
BITMAP
1FC0
3060
6030
6010
E030
FC30
6FE0
6000
6000
6000
6000
3000
3000
3000
1000
1000
1000
ENDCHAR
STARTCHAR q
ENCODING 113
SWIDTH 412 0
DWIDTH 10 0
BBX 9 20 0 -8
BITMAP
0E00
3180
2080
4180
4180
C180
C180
4180
4180
6100
3F00
0900
0100
0100
0180
0180
0180
0180
0180
0080
ENDCHAR
STARTCHAR r
ENCODING 114
SWIDTH 346 0
DWIDTH 8 0
BBX 8 11 0 0
BITMAP
1E
FF
C0
40
40
40
40
60
20
20
20
ENDCHAR
STARTCHAR s
ENCODING 115
SWIDTH 514 0
DWIDTH 12 0
BBX 12 11 0 0
BITMAP
1E00
7300
4100
4100
3000
1FC0
0060
0030
C030
7060
1FC0
ENDCHAR
STARTCHAR t
ENCODING 116
SWIDTH 328 0
DWIDTH 8 0
BBX 8 15 0 0
BITMAP
10
10
18
18
18
FF
38
18
18
18
18
18
18
18
08
ENDCHAR
STARTCHAR u
ENCODING 117
SWIDTH 501 0
DWIDTH 12 0
BBX 12 11 0 0
BITMAP
C000
C040
C040
C040
4040
40C0
60C0
21E0
3B20
1E20
0030
ENDCHAR
STARTCHAR v
ENCODING 118
SWIDTH 389 0
DWIDTH 9 0
BBX 9 9 0 0
BITMAP
C000
4180
6100
2300
2200
1200
1E00
0C00
0C00
ENDCHAR
STARTCHAR w
ENCODING 119
SWIDTH 656 0
DWIDTH 16 0
BBX 15 10 0 0
BITMAP
4000
4008
C104
C186
C182
C182
4182
63C6
3E7C
1C38
ENDCHAR
STARTCHAR x
ENCODING 120
SWIDTH 448 0
DWIDTH 11 0
BBX 11 10 0 -1
BITMAP
C0E0
6180
3300
1E00
0C00
1E00
2300
2180
40C0
00C0
ENDCHAR
STARTCHAR y
ENCODING 121
SWIDTH 487 0
DWIDTH 12 0
BBX 11 23 0 -12
BITMAP
0040
8040
C040
C060
4060
4060
6060
2060
30E0
1F20
0420
0020
0020
0020
0020
0020
0020
0020
4060
6040
38C0
0F80
0300
ENDCHAR
STARTCHAR z
ENCODING 122
SWIDTH 459 0
DWIDTH 11 0
BBX 10 12 0 0
BITMAP
7E00
C100
0100
0100
0300
1F80
7C00
0800
1800
3040
3FC0
1F00
ENDCHAR
STARTCHAR braceleft
ENCODING 123
SWIDTH 393 0
DWIDTH 9 0
BBX 10 23 0 -2
BITMAP
1F80
3080
6000
4000
C000
C000
4000
6000
3000
1E00
0E00
1F00
6100
0300
0200
0C00
1800
3000
2000
2000
2000
3000
1FC0
ENDCHAR
STARTCHAR bar
ENCODING 124
SWIDTH 149 0
DWIDTH 4 0
BBX 3 16 0 0
BITMAP
80
80
40
40
40
40
60
60
20
20
20
20
20
20
20
20
ENDCHAR
STARTCHAR braceright
ENCODING 125
SWIDTH 440 0
DWIDTH 11 0
BBX 10 28 0 -5
BITMAP
7C00
FF00
E100
0180
0180
0300
0700
0C00
1800
1000
1000
1F80
1E00
1000
1800
0C00
0600
0200
0100
0180
0080
00C0
0040
0040
0040
80C0
C180
7F00
ENDCHAR
STARTCHAR asciitilde
ENCODING 126
SWIDTH 402 0
DWIDTH 10 0
BBX 8 3 1 10
BITMAP
E1
9E
84
ENDCHAR
STARTCHAR nonbreakingspace
ENCODING 160
SWIDTH 375 0
DWIDTH 9 0
BBX 1 1 0 0
BITMAP
00
ENDCHAR
STARTCHAR exclamdown
ENCODING 161
SWIDTH 149 0
DWIDTH 4 0
BBX 3 16 0 0
BITMAP
60
E0
00
00
00
40
40
40
40
40
40
40
40
40
40
40
ENDCHAR
STARTCHAR cent
ENCODING 162
SWIDTH 449 0
DWIDTH 11 0
BBX 10 14 0 -1
BITMAP
0800
0400
0400
1F00
2580
4500
4600
C600
C600
4600
6600
7E00
1FC0
0400
ENDCHAR
STARTCHAR sterling
ENCODING 163
SWIDTH 758 0
DWIDTH 18 0
BBX 18 17 0 0
BITMAP
001F00
003180
0020C0
004080
004000
00C000
00FC00
0FFC00
188000
008000
008000
010000
010000
030000
FFF000
FFF800
780000
ENDCHAR
STARTCHAR currency
ENCODING 164
SWIDTH 618 0
DWIDTH 15 0
BBX 13 12 1 1
BITMAP
8000
C798
7FE0
3020
2010
6010
6010
2030
2020
30C0
6FC0
4030
ENDCHAR
STARTCHAR yen
ENCODING 165
SWIDTH 389 0
DWIDTH 9 0
BBX 10 18 0 0
BITMAP
4000
60C0
2080
2180
1300
1300
1E00
0E00
0C00
0C00
FF00
0C00
0C00
7F00
0800
0800
0800
0800
ENDCHAR
STARTCHAR brokenbar
ENCODING 166
SWIDTH 117 0
DWIDTH 3 0
BBX 1 14 1 0
BITMAP
80
80
80
80
80
80
00
80
80
80
80
80
80
80
ENDCHAR
STARTCHAR section
ENCODING 167
SWIDTH 514 0
DWIDTH 12 0
BBX 11 16 1 0
BITMAP
3E00
7F80
C1C0
C040
6000
3F80
E0E0
C060
8020
E0E0
3FC0
00C0
0060
C060
70C0
1F80
ENDCHAR
STARTCHAR dieresis
ENCODING 168
SWIDTH 397 0
DWIDTH 10 0
BBX 6 3 2 10
BITMAP
88
DC
88
ENDCHAR
STARTCHAR copyright
ENCODING 169
SWIDTH 667 0
DWIDTH 16 0
BBX 15 13 1 0
BITMAP
1FC0
20F0
4338
4CC8
884C
9084
9006
9006
9806
CCE4
67CC
3878
0FC0
ENDCHAR
STARTCHAR ordfeminine
ENCODING 170
SWIDTH 266 0
DWIDTH 6 0
BBX 6 7 0 5
BITMAP
20
50
08
78
84
84
78
ENDCHAR
STARTCHAR guillemotleft
ENCODING 171
SWIDTH 755 0
DWIDTH 18 0
BBX 17 11 0 0
BITMAP
000380
006600
00D800
03B000
06C000
0D8000
338000
63FC00
F81F00
3F8000
00C000
ENDCHAR
STARTCHAR logicalnot
ENCODING 172
SWIDTH 369 0
DWIDTH 9 0
BBX 7 4 1 6
BITMAP
FE
FE
02
02
ENDCHAR
STARTCHAR hyphen_
ENCODING 173
SWIDTH 375 0
DWIDTH 9 0
BBX 8 2 0 6
BITMAP
3E
FF
ENDCHAR
STARTCHAR registered
ENCODING 174
SWIDTH 708 0
DWIDTH 17 0
BBX 15 14 1 0
BITMAP
0F00
3BE0
2070
5F98
F06C
A464
8464
8786
8602
C506
64C4
7078
1FF0
0300
ENDCHAR
STARTCHAR macron
ENCODING 175
SWIDTH 287 0
DWIDTH 7 0
BBX 6 2 1 11
BITMAP
FC
CC
ENDCHAR
STARTCHAR degree
ENCODING 176
SWIDTH 254 0
DWIDTH 6 0
BBX 5 7 0 7
BITMAP
30
58
88
88
88
88
70
ENDCHAR
STARTCHAR plusminus
ENCODING 177
SWIDTH 459 0
DWIDTH 11 0
BBX 11 11 0 1
BITMAP
0800
0800
0C00
0C00
0F00
7FE0
C600
0600
0600
0780
7FC0
ENDCHAR
STARTCHAR twosuperior
ENCODING 178
SWIDTH 296 0
DWIDTH 7 0
BBX 6 8 0 5
BITMAP
18
28
04
04
08
08
F0
7C
ENDCHAR
STARTCHAR threesuperior
ENCODING 179
SWIDTH 204 0
DWIDTH 5 0
BBX 5 8 0 6
BITMAP
E0
90
10
E0
10
88
88
70
ENDCHAR
STARTCHAR acute
ENCODING 180
SWIDTH 180 0
DWIDTH 4 0
BBX 4 4 0 9
BITMAP
30
60
C0
80
ENDCHAR
STARTCHAR mu
ENCODING 181
SWIDTH 501 0
DWIDTH 12 0
BBX 12 13 0 -2
BITMAP
4000
C040
C040
C040
C040
C0C0
E0C0
E1E0
FB60
DE20
C030
C000
8000
ENDCHAR
STARTCHAR paragraph
ENCODING 182
SWIDTH 413 0
DWIDTH 10 0
BBX 9 13 0 -1
BITMAP
3F00
7F80
7F80
FE80
7E80
7E80
0480
0480
0480
0480
0680
0680
0100
ENDCHAR
STARTCHAR periodcentered
ENCODING 183
SWIDTH 212 0
DWIDTH 5 0
BBX 3 3 1 4
BITMAP
60
E0
40
ENDCHAR
STARTCHAR cedilla
ENCODING 184
SWIDTH 445 0
DWIDTH 11 0
BBX 6 8 4 -7
BITMAP
80
80
80
60
18
04
84
78
ENDCHAR
STARTCHAR onesuperior
ENCODING 185
SWIDTH 197 0
DWIDTH 5 0
BBX 4 9 0 5
BITMAP
10
10
30
70
D0
90
30
20
20
ENDCHAR
STARTCHAR ordmasculine
ENCODING 186
SWIDTH 254 0
DWIDTH 6 0
BBX 5 7 0 7
BITMAP
30
58
88
88
88
88
70
ENDCHAR
STARTCHAR guillemotright
ENCODING 187
SWIDTH 659 0
DWIDTH 16 0
BBX 14 12 1 0
BITMAP
0400
C700
E1C0
3C7C
070C
0398
0330
0E60
18C0
3300
C600
8000
ENDCHAR
STARTCHAR onequarter
ENCODING 188
SWIDTH 626 0
DWIDTH 15 0
BBX 14 18 0 -1
BITMAP
0100
0900
0900
1900
3900
5200
D200
1200
1280
1480
0504
0504
0D08
08B8
0868
080C
100C
1000
ENDCHAR
STARTCHAR onehalf
ENCODING 189
SWIDTH 566 0
DWIDTH 14 0
BBX 13 18 0 -1
BITMAP
0100
0900
0900
0900
1900
3B00
5A00
D220
1250
1690
1410
1410
0410
0810
0B20
0BE0
11F8
1000
ENDCHAR
STARTCHAR threequarters
ENCODING 190
SWIDTH 566 0
DWIDTH 14 0
BBX 13 19 0 -2
BITMAP
0100
0100
0100
7100
1100
1100
7100
0A80
8A80
4A80
3B08
0508
0498
04F8
0408
0808
0808
0800
1000
ENDCHAR
STARTCHAR questiondown
ENCODING 191
SWIDTH 272 0
DWIDTH 7 0
BBX 6 18 1 0
BITMAP
80
C0
00
00
00
00
E0
F0
30
30
60
C0
C0
80
80
80
C4
38
ENDCHAR
STARTCHAR Agrave
ENCODING 192
SWIDTH 562 0
DWIDTH 14 0
BBX 13 22 0 0
BITMAP
0600
0300
0100
0000
0F80
10C0
2040
2020
2020
4030
4010
4010
4010
4010
7FF8
C018
4018
6018
6018
6018
2018
2010
ENDCHAR
STARTCHAR Aacute
ENCODING 193
SWIDTH 562 0
DWIDTH 14 0
BBX 13 22 0 0
BITMAP
0200
0C00
1800
1000
0F80
10C0
2040
2020
2020
4030
4010
4010
4010
4010
7FF8
C018
4018
6018
6018
6018
2018
2010
ENDCHAR
STARTCHAR Acircumflex
ENCODING 194
SWIDTH 562 0
DWIDTH 14 0
BBX 13 24 0 0
BITMAP
0400
0600
0700
0F80
1980
0000
0F80
10C0
2040
2020
2020
4030
4010
4010
4010
4010
7FF8
C018
4018
6018
6018
6018
2018
2010
ENDCHAR
STARTCHAR Atilde
ENCODING 195
SWIDTH 562 0
DWIDTH 14 0
BBX 13 22 0 0
BITMAP
1840
2780
2100
0000
0F80
10C0
2040
2020
2020
4030
4010
4010
4010
4010
7FF8
C018
4018
6018
6018
6018
2018
2010
ENDCHAR
STARTCHAR Adieresis
ENCODING 196
SWIDTH 562 0
DWIDTH 14 0
BBX 13 22 0 0
BITMAP
0880
1D80
0880
0000
0F80
10C0
2040
2020
2020
4030
4010
4010
4010
4010
7FF8
C018
4018
6018
6018
6018
2018
2010
ENDCHAR
STARTCHAR Aring
ENCODING 197
SWIDTH 562 0
DWIDTH 14 0
BBX 13 22 0 0
BITMAP
0600
0900
0900
0F00
0F80
10C0
2040
2020
2020
4030
4010
4010
4010
4010
7FF8
C018
4018
6018
6018
6018
2018
2010
ENDCHAR
STARTCHAR AE
ENCODING 198
SWIDTH 960 0
DWIDTH 23 0
BBX 23 18 0 0
BITMAP
0F8000
10C000
204000
202FF8
202F84
403800
401800
401800
40180C
401FF8
7FFC00
C01800
401800
601800
601800
601800
201FFE
2017F8
ENDCHAR
STARTCHAR Ccedilla
ENCODING 199
SWIDTH 515 0
DWIDTH 12 0
BBX 12 23 0 -7
BITMAP
0100
0780
0C80
1880
3000
2000
4000
4000
4000
C000
C000
4000
4000
6000
3FF0
1F00
1800
0800
0E00
0180
0080
1880
0F80
ENDCHAR
STARTCHAR Egrave
ENCODING 200
SWIDTH 524 0
DWIDTH 13 0
BBX 11 19 0 0
BITMAP
0C00
0300
0200
0000
7FC0
7F20
4000
4000
4000
4020
7FC0
E000
4000
4000
C000
C000
C000
7FE0
3FC0
ENDCHAR
STARTCHAR Eacute
ENCODING 201
SWIDTH 524 0
DWIDTH 13 0
BBX 11 19 0 0
BITMAP
0300
0600
0C00
0800
7FC0
7F20
4000
4000
4000
4020
7FC0
E000
4000
4000
C000
C000
C000
7FE0
3FC0
ENDCHAR
STARTCHAR Ecircumflex
ENCODING 202
SWIDTH 524 0
DWIDTH 13 0
BBX 11 22 0 0
BITMAP
0200
0300
0700
0D80
18C0
0000
0000
7FC0
7F20
4000
4000
4000
4020
7FC0
E000
4000
4000
C000
C000
C000
7FE0
3FC0
ENDCHAR
STARTCHAR Edieresis
ENCODING 203
SWIDTH 524 0
DWIDTH 13 0
BBX 11 19 0 0
BITMAP
0900
1980
0D80
0000
7FC0
7F20
4000
4000
4000
4020
7FC0
E000
4000
4000
C000
C000
C000
7FE0
3FC0
ENDCHAR
STARTCHAR Igrave
ENCODING 204
SWIDTH 167 0
DWIDTH 4 0
BBX 4 18 0 0
BITMAP
C0
60
40
00
00
80
40
40
40
60
60
20
20
20
20
20
30
30
ENDCHAR
STARTCHAR Iacute
ENCODING 205
SWIDTH 167 0
DWIDTH 4 0
BBX 5 18 -1 0
BITMAP
10
60
40
80
00
40
20
20
20
30
30
10
10
10
10
10
18
18
ENDCHAR
STARTCHAR Icircumflex
ENCODING 206
SWIDTH 167 0
DWIDTH 4 0
BBX 6 22 -1 0
BITMAP
20
30
38
6C
C4
00
00
00
00
40
20
20
20
30
30
10
10
10
10
10
18
18
ENDCHAR
STARTCHAR Idieresis
ENCODING 207
SWIDTH 167 0
DWIDTH 4 0
BBX 7 17 -3 0
BITMAP
44
6E
C4
00
10
08
08
08
0C
0C
04
04
04
04
04
06
06
ENDCHAR
STARTCHAR Eth
ENCODING 208
SWIDTH 741 0
DWIDTH 18 0
BBX 17 15 0 0
BITMAP
3F8000
E1F000
011800
018E00
018300
018100
01F180
07F880
008080
008080
00C180
00C180
008300
030E00
01F800
ENDCHAR
STARTCHAR Ntilde
ENCODING 209
SWIDTH 609 0
DWIDTH 15 0
BBX 13 17 1 0
BITMAP
1C60
33C0
2100
0000
8000
8060
C060
C030
C030
E010
E018
B008
9008
9818
8C10
87F0
81C0
ENDCHAR
STARTCHAR Ograve
ENCODING 210
SWIDTH 609 0
DWIDTH 15 0
BBX 14 17 0 0
BITMAP
0300
0180
0080
0000
0000
0C00
3F80
60E0
4030
C018
C008
400C
4004
600C
3008
1C70
0FC0
ENDCHAR
STARTCHAR Oacute
ENCODING 211
SWIDTH 609 0
DWIDTH 15 0
BBX 14 17 0 0
BITMAP
0180
0300
0600
0400
0000
0C00
3F80
60E0
4030
C018
C008
400C
4004
600C
3008
1C70
0FC0
ENDCHAR
STARTCHAR Ocircumflex
ENCODING 212
SWIDTH 609 0
DWIDTH 15 0
BBX 14 19 0 0
BITMAP
0400
0400
0E00
1B00
3100
0000
0000
0C00
3F80
60E0
4030
C018
C008
400C
4004
600C
3008
1C70
0FC0
ENDCHAR
STARTCHAR Otilde
ENCODING 213
SWIDTH 609 0
DWIDTH 15 0
BBX 14 16 0 0
BITMAP
1840
2780
2100
0000
0C00
3F80
60E0
4030
C018
C008
400C
4004
600C
3008
1C70
0FC0
ENDCHAR
STARTCHAR Odieresis
ENCODING 214
SWIDTH 609 0
DWIDTH 15 0
BBX 14 17 0 0
BITMAP
0440
0EC0
0440
0000
0000
0C00
3F80
60E0
4030
C018
C008
400C
4004
600C
3008
1C70
0FC0
ENDCHAR
STARTCHAR multiply
ENCODING 215
SWIDTH 448 0
DWIDTH 11 0
BBX 7 7 1 1
BITMAP
42
E6
3C
18
3C
66
40
ENDCHAR
STARTCHAR Oslash
ENCODING 216
SWIDTH 609 0
DWIDTH 15 0
BBX 14 18 0 -2
BITMAP
0080
0040
00C0
0080
0C80
3F80
61E0
4130
C318
C308
C20C
4604
640C
3408
1C70
0FC0
1800
1000
ENDCHAR
STARTCHAR Ugrave
ENCODING 217
SWIDTH 571 0
DWIDTH 14 0
BBX 12 17 1 0
BITMAP
0600
0300
0200
0000
C040
8040
8040
8040
8040
8040
8060
8020
C060
4070
60F0
3F10
1C00
ENDCHAR
STARTCHAR Uacute
ENCODING 218
SWIDTH 571 0
DWIDTH 14 0
BBX 12 17 1 0
BITMAP
0200
0C00
0800
1000
C040
8040
8040
8040
8040
8040
8060
8020
C060
4070
60F0
3F10
1C00
ENDCHAR
STARTCHAR Ucircumflex
ENCODING 219
SWIDTH 571 0
DWIDTH 14 0
BBX 12 22 1 0
BITMAP
0400
0600
0700
0F80
1980
0000
0000
0000
0000
C040
8040
8040
8040
8040
8040
8060
8020
C060
4070
60F0
3F10
1C00
ENDCHAR
STARTCHAR Udieresis
ENCODING 220
SWIDTH 571 0
DWIDTH 14 0
BBX 12 17 1 0
BITMAP
1100
1980
1900
0000
C040
8040
8040
8040
8040
8040
8060
8020
C060
4070
60F0
3F10
1C00
ENDCHAR
STARTCHAR Yacute
ENCODING 221
SWIDTH 403 0
DWIDTH 10 0
BBX 9 20 0 0
BITMAP
0100
0600
0C00
0800
0000
C080
4080
6080
3180
1980
0F00
0300
0200
0200
0600
0400
0400
0400
0400
0400
ENDCHAR
STARTCHAR Thorn
ENCODING 222
SWIDTH 497 0
DWIDTH 12 0
BBX 10 19 1 -4
BITMAP
8000
C000
C000
C000
C000
C000
C000
FE00
E780
C0C0
C040
4040
6040
79C0
5F80
4000
4000
4000
4000
ENDCHAR
STARTCHAR germandbls
ENCODING 223
SWIDTH 590 0
DWIDTH 14 0
BBX 13 20 1 -3
BITMAP
7000
FC00
8300
8100
8100
8200
DE00
DE00
C780
40C0
4020
4010
4018
4018
4030
4FE0
4000
4000
4000
6000
ENDCHAR
STARTCHAR agrave
ENCODING 224
SWIDTH 505 0
DWIDTH 12 0
BBX 11 15 0 0
BITMAP
0C00
0600
0200
0E00
1B00
0180
00C0
0040
3FE0
60E0
4060
C020
4020
7FE0
1F80
ENDCHAR
STARTCHAR aacute
ENCODING 225
SWIDTH 505 0
DWIDTH 12 0
BBX 11 16 0 0
BITMAP
0200
0600
0800
1000
0E00
1B00
0180
00C0
0040
3FE0
60E0
4060
C020
4020
7FE0
1F80
ENDCHAR
STARTCHAR acircumflex
ENCODING 226
SWIDTH 505 0
DWIDTH 12 0
BBX 11 18 0 0
BITMAP
0400
0600
0700
0D80
1880
0000
0E00
1B00
0180
00C0
0040
3FE0
60E0
4060
C020
4020
7FE0
1F80
ENDCHAR
STARTCHAR atilde
ENCODING 227
SWIDTH 505 0
DWIDTH 12 0
BBX 11 17 0 0
BITMAP
3840
2780
2100
0000
0000
0E00
1B00
0180
00C0
0040
3FE0
60E0
4060
C020
4020
7FE0
1F80
ENDCHAR
STARTCHAR adieresis
ENCODING 228
SWIDTH 505 0
DWIDTH 12 0
BBX 11 16 0 0
BITMAP
0900
1980
0980
0000
0E00
1B00
0180
00C0
0040
3FE0
60E0
4060
C020
4020
7FE0
1F80
ENDCHAR
STARTCHAR aring
ENCODING 229
SWIDTH 505 0
DWIDTH 12 0
BBX 11 16 0 0
BITMAP
0600
0900
0900
0B00
0E00
1B00
0180
00C0
0040
3FE0
60E0
4060
C020
4020
7FE0
1F80
ENDCHAR
STARTCHAR ae
ENCODING 230
SWIDTH 881 0
DWIDTH 21 0
BBX 21 13 0 -1
BITMAP
0E0700
1B1C80
0190C0
00E040
006040
3FE180
60FF00
406000
C02000
401000
7FFC00
1F8FF8
000080
ENDCHAR
STARTCHAR ccedilla
ENCODING 231
SWIDTH 449 0
DWIDTH 11 0
BBX 10 18 0 -7
BITMAP
0400
1F00
2180
4100
4000
C000
C000
4000
6000
3800
1FC0
1000
0800
0E00
0180
0080
1880
0F00
ENDCHAR
STARTCHAR egrave
ENCODING 232
SWIDTH 515 0
DWIDTH 12 0
BBX 12 16 0 0
BITMAP
0C00
0600
0400
0000
1F00
2180
6080
4080
4100
C700
FC00
4000
4000
2000
1FF0
0FC0
ENDCHAR
STARTCHAR eacute
ENCODING 233
SWIDTH 515 0
DWIDTH 12 0
BBX 12 17 0 0
BITMAP
0200
0C00
0800
1000
0000
1F00
2180
6080
4080
4100
C700
FC00
4000
4000
2000
1FF0
0FC0
ENDCHAR
STARTCHAR ecircumflex
ENCODING 234
SWIDTH 515 0
DWIDTH 12 0
BBX 12 18 0 0
BITMAP
0600
0200
0700
0D80
1880
0000
1F00
2180
6080
4080
4100
C700
FC00
4000
4000
2000
1FF0
0FC0
ENDCHAR
STARTCHAR edieresis
ENCODING 235
SWIDTH 515 0
DWIDTH 12 0
BBX 12 16 0 0
BITMAP
1100
1B80
1100
0000
1F00
2180
6080
4080
4100
C700
FC00
4000
4000
2000
1FF0
0FC0
ENDCHAR
STARTCHAR igrave
ENCODING 236
SWIDTH 174 0
DWIDTH 4 0
BBX 4 14 0 0
BITMAP
C0
60
30
40
60
60
60
20
20
20
30
30
30
30
ENDCHAR
STARTCHAR iacute
ENCODING 237
SWIDTH 174 0
DWIDTH 4 0
BBX 4 15 0 0
BITMAP
20
60
C0
80
40
60
60
60
20
20
20
30
30
30
30
ENDCHAR
STARTCHAR icircumflex
ENCODING 238
SWIDTH 174 0
DWIDTH 4 0
BBX 6 18 -1 0
BITMAP
20
30
38
6C
C4
00
00
20
30
30
30
10
10
10
18
18
18
18
ENDCHAR
STARTCHAR idieresis
ENCODING 239
SWIDTH 174 0
DWIDTH 4 0
BBX 6 14 -1 0
BITMAP
CC
CC
00
20
30
30
30
10
10
10
18
18
18
18
ENDCHAR
STARTCHAR eth
ENCODING 240
SWIDTH 407 0
DWIDTH 10 0
BBX 9 13 1 0
BITMAP
E000
F000
1F80
1F00
3A00
0300
7F00
C300
8100
8100
8100
C300
7E00
ENDCHAR
STARTCHAR ntilde
ENCODING 241
SWIDTH 459 0
DWIDTH 11 0
BBX 10 15 1 0
BITMAP
E100
9E00
8400
0000
1C00
F700
C300
C180
8180
8080
8080
C0C0
C0C0
40C0
4080
ENDCHAR
STARTCHAR ograve
ENCODING 242
SWIDTH 487 0
DWIDTH 12 0
BBX 11 13 0 0
BITMAP
0600
0300
0200
0F00
3DC0
60C0
4060
C020
C020
4060
60C0
3380
1F00
ENDCHAR
STARTCHAR oacute
ENCODING 243
SWIDTH 487 0
DWIDTH 12 0
BBX 11 14 0 0
BITMAP
0200
0600
0800
1000
0F00
3DC0
60C0
4060
C020
C020
4060
60C0
3380
1F00
ENDCHAR
STARTCHAR ocircumflex
ENCODING 244
SWIDTH 487 0
DWIDTH 12 0
BBX 11 16 0 0
BITMAP
0400
0600
0700
0B80
3980
0000
0F00
3DC0
60C0
4060
C020
C020
4060
60C0
3380
1F00
ENDCHAR
STARTCHAR otilde
ENCODING 245
SWIDTH 487 0
DWIDTH 12 0
BBX 11 13 0 0
BITMAP
1840
2780
2100
0F00
3DC0
60C0
4060
C020
C020
4060
60C0
3380
1F00
ENDCHAR
STARTCHAR odieresis
ENCODING 246
SWIDTH 487 0
DWIDTH 12 0
BBX 11 13 0 0
BITMAP
1100
1980
1900
0F00
3DC0
60C0
4060
C020
C020
4060
60C0
3380
1F00
ENDCHAR
STARTCHAR divide
ENCODING 247
SWIDTH 335 0
DWIDTH 8 0
BBX 6 6 1 2
BITMAP
30
10
00
FC
00
30
ENDCHAR
STARTCHAR oslash
ENCODING 248
SWIDTH 487 0
DWIDTH 12 0
BBX 11 11 0 0
BITMAP
0080
0F80
3FC0
63C0
4260
C620
CC20
5860
78C0
33C0
7F00
ENDCHAR
STARTCHAR ugrave
ENCODING 249
SWIDTH 501 0
DWIDTH 12 0
BBX 12 16 0 0
BITMAP
1800
0C00
0400
0000
0000
C000
C040
C040
C040
4040
40C0
60C0
21E0
3B20
1E20
0030
ENDCHAR
STARTCHAR uacute
ENCODING 250
SWIDTH 501 0
DWIDTH 12 0
BBX 12 16 0 0
BITMAP
0300
0600
0C00
1000
0000
C000
C040
C040
C040
4040
40C0
60C0
21E0
3B20
1E20
0030
ENDCHAR
STARTCHAR ucircumflex
ENCODING 251
SWIDTH 501 0
DWIDTH 12 0
BBX 12 18 0 0
BITMAP
0400
0600
0700
0D80
1880
0000
0000
C000
C040
C040
C040
4040
40C0
60C0
21E0
3B20
1E20
0030
ENDCHAR
STARTCHAR udieresis
ENCODING 252
SWIDTH 501 0
DWIDTH 12 0
BBX 12 15 0 0
BITMAP
1100
3B00
1180
0000
C000
C040
C040
C040
4040
40C0
60C0
21E0
3B20
1E20
0030
ENDCHAR
STARTCHAR yacute
ENCODING 253
SWIDTH 487 0
DWIDTH 12 0
BBX 11 28 0 -12
BITMAP
0200
0600
0800
1000
0000
0040
8040
C040
C060
4060
4060
6060
2060
30E0
1F20
0420
0020
0020
0020
0020
0020
0020
0020
4060
6040
38C0
0F80
0300
ENDCHAR
STARTCHAR thorn
ENCODING 254
SWIDTH 520 0
DWIDTH 13 0
BBX 11 17 1 -5
BITMAP
C000
8000
8000
9F00
F9C0
C060
8060
8020
8060
FFC0
9F80
8000
8000
8000
8000
8000
8000
ENDCHAR
STARTCHAR ydieresis
ENCODING 255
SWIDTH 487 0
DWIDTH 12 0
BBX 11 26 0 -12
BITMAP
1100
3B80
1100
0040
8040
C040
C060
4060
4060
6060
2060
30E0
1F20
0420
0020
0020
0020
0020
0020
0020
0020
4060
6040
38C0
0F80
0300
ENDCHAR
STARTCHAR Amacron
ENCODING 256
SWIDTH 562 0
DWIDTH 14 0
BBX 13 21 0 0
BITMAP
1F80
1D80
0000
0F80
10C0
2040
2020
2020
4030
4010
4010
4010
4010
7FF8
C018
4018
6018
6018
6018
2018
2010
ENDCHAR
STARTCHAR amacron
ENCODING 257
SWIDTH 505 0
DWIDTH 12 0
BBX 11 16 0 0
BITMAP
1F80
1980
0000
0000
0E00
1B00
0180
00C0
0040
3FE0
60E0
4060
C020
4020
7FE0
1F80
ENDCHAR
STARTCHAR Abreve
ENCODING 258
SWIDTH 562 0
DWIDTH 14 0
BBX 13 22 0 0
BITMAP
0880
0780
0000
0000
0F80
10C0
2040
2020
2020
4030
4010
4010
4010
4010
7FF8
C018
4018
6018
6018
6018
2018
2010
ENDCHAR
STARTCHAR abreve
ENCODING 259
SWIDTH 505 0
DWIDTH 12 0
BBX 11 16 0 0
BITMAP
1100
0E00
0000
0000
0E00
1B00
0180
00C0
0040
3FE0
60E0
4060
C020
4020
7FE0
1F80
ENDCHAR
STARTCHAR Aogonek
ENCODING 260
SWIDTH 562 0
DWIDTH 14 0
BBX 13 21 0 -3
BITMAP
0F80
10C0
2040
2020
2020
4030
4010
4010
4010
4010
7FF8
C018
4018
6018
6018
6018
2018
2030
0040
0040
0078
ENDCHAR
STARTCHAR aogonek
ENCODING 261
SWIDTH 505 0
DWIDTH 12 0
BBX 11 15 0 -3
BITMAP
0E00
1B00
0180
00C0
0040
3FE0
60E0
4060
C020
4020
7FE0
1F80
0100
0100
00E0
ENDCHAR
STARTCHAR Cacute
ENCODING 262
SWIDTH 515 0
DWIDTH 12 0
BBX 12 19 0 0
BITMAP
0180
0300
0600
0500
0780
0C80
1880
3000
2000
4000
4000
4000
C000
C000
4000
4000
6000
3FF0
1F00
ENDCHAR
STARTCHAR cacute
ENCODING 263
SWIDTH 449 0
DWIDTH 11 0
BBX 10 16 0 0
BITMAP
0300
0600
0C00
0800
0000
1F00
3100
6180
4100
4000
C000
C000
4000
6000
3800
1FC0
ENDCHAR
STARTCHAR Ccircumflex
ENCODING 264
SWIDTH 515 0
DWIDTH 12 0
BBX 12 22 0 0
BITMAP
0600
0200
0700
0D80
1880
0000
0100
0780
0C80
1880
3000
2000
4000
4000
4000
C000
C000
4000
4000
6000
3FF0
1F00
ENDCHAR
STARTCHAR ccircumflex
ENCODING 265
SWIDTH 449 0
DWIDTH 11 0
BBX 10 18 0 0
BITMAP
0400
0600
0F00
1B00
3180
0000
0000
1F00
3100
6180
4100
4000
C000
C000
4000
6000
3800
1FC0
ENDCHAR
STARTCHAR Cdotaccent
ENCODING 266
SWIDTH 515 0
DWIDTH 12 0
BBX 12 19 0 0
BITMAP
0200
0200
0000
0100
0780
0C80
1880
3000
2000
4000
4000
4000
C000
C000
4000
4000
6000
3FF0
1F00
ENDCHAR
STARTCHAR cdotaccent
ENCODING 267
SWIDTH 449 0
DWIDTH 11 0
BBX 10 13 0 0
BITMAP
0C00
0400
1F00
3100
6180
4100
4000
C000
C000
4000
6000
3800
1FC0
ENDCHAR
STARTCHAR Ccaron
ENCODING 268
SWIDTH 515 0
DWIDTH 12 0
BBX 12 20 0 0
BITMAP
0840
06C0
0380
0000
0100
0780
0C80
1880
3000
2000
4000
4000
4000
C000
C000
4000
4000
6000
3FF0
1F00
ENDCHAR
STARTCHAR ccaron
ENCODING 269
SWIDTH 449 0
DWIDTH 11 0
BBX 10 15 0 0
BITMAP
2100
1B80
0600
0000
1F00
3100
6180
4100
4000
C000
C000
4000
6000
3800
1FC0
ENDCHAR
STARTCHAR Dcaron
ENCODING 270
SWIDTH 741 0
DWIDTH 18 0
BBX 17 19 0 0
BITMAP
021000
01F000
00C000
000000
3F8000
E1F000
011800
018E00
018300
008100
008180
008080
008080
008080
00C180
00C180
008300
030E00
01F800
ENDCHAR
STARTCHAR dcaron
ENCODING 271
SWIDTH 582 0
DWIDTH 14 0
BBX 14 19 0 0
BITMAP
0010
0008
0088
00C8
00CC
00CC
0060
0060
1C60
3F60
61E0
4060
4060
C060
4070
40F0
61B0
3F10
1C00
ENDCHAR
STARTCHAR Dcroat
ENCODING 272
SWIDTH 741 0
DWIDTH 18 0
BBX 17 15 0 0
BITMAP
3F8000
E1F000
011800
018E00
018300
008100
008180
07E080
048080
008080
00C180
00C180
008300
030E00
01F800
ENDCHAR
STARTCHAR dcroat
ENCODING 273
SWIDTH 524 0
DWIDTH 13 0
BBX 13 17 0 0
BITMAP
0080
00C0
00C0
07F8
0660
0060
1C60
3F60
61E0
60E0
4060
C070
4070
40F0
61B0
3F10
1C00
ENDCHAR
STARTCHAR Emacron
ENCODING 274
SWIDTH 524 0
DWIDTH 13 0
BBX 11 18 0 0
BITMAP
0F80
1C80
0000
7FC0
7F20
4000
4000
4000
4020
7FC0
E000
4000
4000
C000
C000
C000
7FE0
3FC0
ENDCHAR
STARTCHAR emacron
ENCODING 275
SWIDTH 515 0
DWIDTH 12 0
BBX 12 16 0 0
BITMAP
1F80
1C80
0000
0000
1F00
2180
6080
4080
4100
C700
FC00
4000
4000
2000
1FF0
0FC0
ENDCHAR
STARTCHAR Ebreve
ENCODING 276
SWIDTH 524 0
DWIDTH 13 0
BBX 11 19 0 0
BITMAP
0900
0F00
0000
0000
7FC0
7F20
4000
4000
4000
4020
7FC0
E000
4000
4000
C000
C000
C000
7FE0
3FC0
ENDCHAR
STARTCHAR ebreve
ENCODING 277
SWIDTH 515 0
DWIDTH 12 0
BBX 12 16 0 0
BITMAP
0880
0780
0000
0000
1F00
2180
6080
4080
4100
C700
FC00
4000
4000
2000
1FF0
0FC0
ENDCHAR
STARTCHAR Edotaccent
ENCODING 278
SWIDTH 524 0
DWIDTH 13 0
BBX 11 18 0 0
BITMAP
0600
0600
0000
7FC0
7F20
4000
4000
4000
4020
7FC0
E000
4000
4000
C000
C000
C000
7FE0
3FC0
ENDCHAR
STARTCHAR edotaccent
ENCODING 279
SWIDTH 515 0
DWIDTH 12 0
BBX 12 16 0 0
BITMAP
0C00
0400
0000
0000
1F00
2180
6080
4080
4100
C700
FC00
4000
4000
2000
1FF0
0FC0
ENDCHAR
STARTCHAR Eogonek
ENCODING 280
SWIDTH 524 0
DWIDTH 13 0
BBX 11 18 0 -3
BITMAP
7FC0
7F20
4000
4000
4000
4020
7FC0
E000
4000
4000
C000
C000
C000
7FE0
3FC0
0300
0200
03E0
ENDCHAR
STARTCHAR eogonek
ENCODING 281
SWIDTH 515 0
DWIDTH 12 0
BBX 12 15 0 -3
BITMAP
1F00
2180
6080
4080
4100
C700
FC00
4000
4000
2000
1FF0
0FC0
0300
0200
03E0
ENDCHAR
STARTCHAR Ecaron
ENCODING 282
SWIDTH 524 0
DWIDTH 13 0
BBX 11 19 0 0
BITMAP
1080
0DC0
0300
0000
7FC0
7F20
4000
4000
4000
4020
7FC0
E000
4000
4000
C000
C000
C000
7FE0
3FC0
ENDCHAR
STARTCHAR ecaron
ENCODING 283
SWIDTH 515 0
DWIDTH 12 0
BBX 12 17 0 0
BITMAP
1080
0D80
0700
0000
0000
1F00
2180
6080
4080
4100
C700
FC00
4000
4000
2000
1FF0
0FC0
ENDCHAR
STARTCHAR Gcircumflex
ENCODING 284
SWIDTH 571 0
DWIDTH 14 0
BBX 12 21 1 -2
BITMAP
0100
0180
01C0
03E0
0660
0000
0040
03E0
0C10
3000
6000
4000
87E0
8030
8030
8030
C070
7FF0
3C30
0030
0010
ENDCHAR
STARTCHAR gcircumflex
ENCODING 285
SWIDTH 366 0
DWIDTH 9 0
BBX 12 30 -3 -12
BITMAP
0100
0180
03C0
06C0
0C60
0000
0000
0000
01C0
03C0
0460
0820
0820
1820
1860
0CE0
0FE0
0230
0030
0030
0030
0030
0030
8030
8030
8030
6020
3860
1FC0
0380
ENDCHAR
STARTCHAR Gbreve
ENCODING 286
SWIDTH 571 0
DWIDTH 14 0
BBX 12 18 1 -2
BITMAP
1100
0F00
0000
0040
03E0
0C10
3000
6000
4000
87E0
8030
8030
8030
C070
7FF0
3C30
0030
0010
ENDCHAR
STARTCHAR gbreve
ENCODING 287
SWIDTH 366 0
DWIDTH 9 0
BBX 12 25 -3 -12
BITMAP
04C0
0780
0000
01C0
03C0
0460
0820
0820
1820
1860
0CE0
0FE0
0230
0030
0030
0030
0030
0030
8030
8030
8030
6020
3860
1FC0
0380
ENDCHAR
STARTCHAR Gdotaccent
ENCODING 288
SWIDTH 571 0
DWIDTH 14 0
BBX 12 17 1 -2
BITMAP
0100
0100
0040
03E0
0C10
3000
6000
4000
87E0
8030
8030
8030
C070
7FF0
3C30
0030
0010
ENDCHAR
STARTCHAR gdotaccent
ENCODING 289
SWIDTH 366 0
DWIDTH 9 0
BBX 12 25 -3 -12
BITMAP
0300
0100
0000
01C0
03C0
0460
0820
0820
1820
1860
0CE0
0FE0
0230
0030
0030
0030
0030
0030
8030
8030
8030
6020
3860
1FC0
0380
ENDCHAR
STARTCHAR Gcommaaccent
ENCODING 290
SWIDTH 571 0
DWIDTH 14 0
BBX 12 21 1 -8
BITMAP
0040
03E0
0C10
3000
6000
4000
87E0
8030
8030
8030
C070
7FF0
3C30
0030
0010
0400
0600
0600
0600
0400
0400
ENDCHAR
STARTCHAR gcommaaccent
ENCODING 291
SWIDTH 366 0
DWIDTH 9 0
BBX 12 34 -3 -12
BITMAP
0200
0100
0100
0100
0100
0100
0000
0000
0000
0000
0000
0000
01C0
03C0
0460
0820
0820
1820
1860
0CE0
0FE0
0230
0030
0030
0030
0030
0030
8030
8030
8030
6020
3860
1FC0
0380
ENDCHAR
STARTCHAR Hcircumflex
ENCODING 292
SWIDTH 524 0
DWIDTH 13 0
BBX 12 23 0 0
BITMAP
0200
0200
0700
0D80
1880
0000
0000
4020
4020
4020
4020
4020
4020
4060
61E0
6720
7C20
E020
2020
2020
2030
2030
2010
ENDCHAR
STARTCHAR hcircumflex
ENCODING 293
SWIDTH 427 0
DWIDTH 10 0
BBX 9 20 0 0
BITMAP
0400
0600
0F00
9B00
B180
8000
C000
4000
4000
5C00
7F00
6100
4180
6080
6080
6080
2080
2080
2080
2080
ENDCHAR
STARTCHAR hbar
ENCODING 295
SWIDTH 427 0
DWIDTH 10 0
BBX 11 17 -2 0
BITMAP
2000
2000
2000
3000
FC00
1000
1700
1FC0
1840
1060
1820
1820
1820
0820
0820
0820
0820
ENDCHAR
STARTCHAR Itilde
ENCODING 296
SWIDTH 167 0
DWIDTH 4 0
BBX 8 17 -2 0
BITMAP
71
9E
84
00
20
10
10
10
18
18
08
08
08
08
08
0C
0C
ENDCHAR
STARTCHAR itilde
ENCODING 297
SWIDTH 174 0
DWIDTH 4 0
BBX 8 16 -1 0
BITMAP
61
9A
8C
80
00
20
30
30
30
10
10
10
18
18
18
18
ENDCHAR
STARTCHAR imacron
ENCODING 299
SWIDTH 174 0
DWIDTH 4 0
BBX 6 14 -1 0
BITMAP
FC
00
00
20
30
30
30
10
10
10
18
18
18
18
ENDCHAR
STARTCHAR Ibreve
ENCODING 300
SWIDTH 167 0
DWIDTH 4 0
BBX 4 18 0 0
BITMAP
90
F0
00
00
00
80
40
40
40
60
60
20
20
20
20
20
30
30
ENDCHAR
STARTCHAR ibreve
ENCODING 301
SWIDTH 174 0
DWIDTH 4 0
BBX 4 15 0 0
BITMAP
30
90
60
00
40
60
60
60
20
20
20
30
30
30
30
ENDCHAR
STARTCHAR Iogonek
ENCODING 302
SWIDTH 167 0
DWIDTH 4 0
BBX 5 16 0 -3
BITMAP
80
40
40
40
60
60
20
20
20
20
20
30
70
C0
80
F8
ENDCHAR
STARTCHAR iogonek
ENCODING 303
SWIDTH 174 0
DWIDTH 4 0
BBX 4 18 0 -4
BITMAP
C0
00
00
40
60
60
60
20
20
20
30
30
30
70
C0
80
C0
30
ENDCHAR
STARTCHAR Idotaccent
ENCODING 304
SWIDTH 167 0
DWIDTH 4 0
BBX 4 17 0 0
BITMAP
80
80
00
00
80
40
40
40
60
60
20
20
20
20
20
30
30
ENDCHAR
STARTCHAR dotlessi
ENCODING 305
SWIDTH 174 0
DWIDTH 4 0
BBX 3 11 1 0
BITMAP
80
C0
C0
C0
40
40
40
60
60
60
60
ENDCHAR
STARTCHAR Jcircumflex
ENCODING 308
SWIDTH 439 0
DWIDTH 11 0
BBX 10 24 1 0
BITMAP
0200
0300
0380
07C0
0CC0
0000
0000
0200
0100
0100
0100
0100
0180
0180
0180
8080
8080
8080
8080
4080
2080
1180
0D80
0700
ENDCHAR
STARTCHAR jcircumflex
ENCODING 309
SWIDTH 200 0
DWIDTH 5 0
BBX 9 29 -3 -11
BITMAP
0400
0600
0F00
1B00
3180
0000
0000
0000
0000
0400
0400
0600
0600
0200
0200
0300
0300
0300
0300
0100
0100
C100
4100
6100
6100
3100
1900
0F00
0200
ENDCHAR
STARTCHAR Kcommaaccent
ENCODING 310
SWIDTH 468 0
DWIDTH 11 0
BBX 11 22 0 -8
BITMAP
8100
C600
4400
4800
5800
7000
6000
6000
7000
5800
4E00
6300
61C0
2060
0000
0000
0400
0400
0400
0400
0400
0800
ENDCHAR
STARTCHAR kcommaaccent
ENCODING 311
SWIDTH 403 0
DWIDTH 10 0
BBX 10 23 0 -8
BITMAP
8000
8000
8000
C000
4300
4600
4400
4800
7000
7000
6000
7000
7800
6780
63C0
0000
0000
0800
0C00
0C00
0C00
0800
0800
ENDCHAR
STARTCHAR Lacute
ENCODING 313
SWIDTH 346 0
DWIDTH 8 0
BBX 8 17 0 0
BITMAP
02
0C
08
10
40
60
40
40
40
40
40
40
C0
C0
40
7C
3F
ENDCHAR
STARTCHAR lacute
ENCODING 314
SWIDTH 120 0
DWIDTH 3 0
BBX 3 18 0 0
BITMAP
20
40
80
80
40
40
40
40
40
40
40
40
40
40
40
40
40
40
ENDCHAR
STARTCHAR Lcommaaccent
ENCODING 315
SWIDTH 346 0
DWIDTH 8 0
BBX 8 21 0 -8
BITMAP
40
60
40
40
40
40
40
40
C0
C0
40
7C
3F
00
00
10
18
08
08
18
10
ENDCHAR
STARTCHAR lcommaaccent
ENCODING 316
SWIDTH 120 0
DWIDTH 3 0
BBX 2 22 0 -8
BITMAP
40
40
40
40
40
40
40
40
40
40
40
40
40
40
00
00
80
C0
40
40
C0
80
ENDCHAR
STARTCHAR Lcaron
ENCODING 317
SWIDTH 346 0
DWIDTH 8 0
BBX 8 18 0 0
BITMAP
08
08
08
0C
0C
44
60
40
40
40
40
40
40
C0
C0
40
7C
3F
ENDCHAR
STARTCHAR lcaron
ENCODING 318
SWIDTH 222 0
DWIDTH 5 0
BBX 4 18 1 0
BITMAP
20
20
30
30
90
90
80
80
80
80
80
80
80
80
80
80
80
80
ENDCHAR
STARTCHAR Ldot
ENCODING 319
SWIDTH 346 0
DWIDTH 8 0
BBX 8 13 0 0
BITMAP
40
60
40
40
40
40
58
5C
D8
C0
40
7C
3F
ENDCHAR
STARTCHAR ldot
ENCODING 320
SWIDTH 333 0
DWIDTH 8 0
BBX 6 14 1 0
BITMAP
80
80
80
80
80
80
80
88
9C
88
80
80
80
80
ENDCHAR
STARTCHAR Lslash
ENCODING 321
SWIDTH 346 0
DWIDTH 8 0
BBX 9 13 0 0
BITMAP
3000
3000
3000
2000
2000
2000
3800
7000
E000
A000
2000
3F80
0F80
ENDCHAR
STARTCHAR lslash
ENCODING 322
SWIDTH 120 0
DWIDTH 3 0
BBX 6 14 -2 0
BITMAP
10
10
10
10
10
1C
18
70
D0
10
10
10
10
10
ENDCHAR
STARTCHAR Nacute
ENCODING 323
SWIDTH 609 0
DWIDTH 15 0
BBX 13 17 1 0
BITMAP
0300
0600
0C00
0800
8000
8060
C060
C030
C030
E010
E018
B008
9008
9818
8C10
87F0
81C0
ENDCHAR
STARTCHAR nacute
ENCODING 324
SWIDTH 459 0
DWIDTH 11 0
BBX 10 16 1 0
BITMAP
0C00
1800
3000
2000
0000
1C00
F700
C300
C180
8180
8080
8080
C0C0
C0C0
40C0
4080
ENDCHAR
STARTCHAR Ncommaaccent
ENCODING 325
SWIDTH 609 0
DWIDTH 15 0
BBX 13 21 1 -8
BITMAP
8000
8060
C060
C030
C030
E010
E018
B008
9008
9818
8C10
87F0
81C0
0000
0000
0400
0600
0200
0200
0600
0400
ENDCHAR
STARTCHAR ncommaaccent
ENCODING 326
SWIDTH 459 0
DWIDTH 11 0
BBX 10 19 1 -8
BITMAP
1C00
F700
C300
C180
8180
8080
8080
C0C0
C0C0
40C0
4080
0000
0000
1000
1800
0800
0800
1800
1000
ENDCHAR
STARTCHAR Ncaron
ENCODING 327
SWIDTH 609 0
DWIDTH 15 0
BBX 13 19 1 0
BITMAP
1080
0DC0
0300
0000
0000
0000
8000
8060
C060
C030
C030
E010
E018
B008
9008
9818
8C10
87F0
81C0
ENDCHAR
STARTCHAR ncaron
ENCODING 328
SWIDTH 459 0
DWIDTH 11 0
BBX 10 15 1 0
BITMAP
4100
3600
0C00
0000
1C00
F700
C300
C180
8180
8080
8080
C0C0
C0C0
40C0
4080
ENDCHAR
STARTCHAR napostrophe
ENCODING 329
SWIDTH 459 0
DWIDTH 11 0
BBX 10 17 1 0
BITMAP
4000
6000
2000
6000
6000
4000
1C00
F700
C300
C180
8180
8080
8080
C0C0
C0C0
40C0
4080
ENDCHAR
STARTCHAR Omacron
ENCODING 332
SWIDTH 609 0
DWIDTH 15 0
BBX 14 17 0 0
BITMAP
07C0
0E40
0000
0000
0000
0C00
3F80
60E0
4030
C018
C008
400C
4004
600C
3008
1C70
0FC0
ENDCHAR
STARTCHAR omacron
ENCODING 333
SWIDTH 487 0
DWIDTH 12 0
BBX 11 13 0 0
BITMAP
1F80
1980
0000
0F00
3DC0
60C0
4060
C020
C020
4060
60C0
3380
1F00
ENDCHAR
STARTCHAR Obreve
ENCODING 334
SWIDTH 609 0
DWIDTH 15 0
BBX 14 16 0 0
BITMAP
04C0
0780
0000
0000
0C00
3F80
60E0
4030
C018
C008
400C
4004
600C
3008
1C70
0FC0
ENDCHAR
STARTCHAR obreve
ENCODING 335
SWIDTH 487 0
DWIDTH 12 0
BBX 11 14 0 0
BITMAP
1200
1E00
0000
0000
0F00
3DC0
60C0
4060
C020
C020
4060
60C0
3380
1F00
ENDCHAR
STARTCHAR Ohungarumlaut
ENCODING 336
SWIDTH 609 0
DWIDTH 15 0
BBX 14 18 0 0
BITMAP
0600
06C0
0D80
0900
0000
0000
0C00
3F80
60E0
4030
C018
C008
400C
4004
600C
3008
1C70
0FC0
ENDCHAR
STARTCHAR ohungarumlaut
ENCODING 337
SWIDTH 487 0
DWIDTH 12 0
BBX 11 14 0 0
BITMAP
0800
1D00
1200
2400
0F00
3DC0
60C0
4060
C020
C020
4060
60C0
3380
1F00
ENDCHAR
STARTCHAR OE
ENCODING 338
SWIDTH 848 0
DWIDTH 20 0
BBX 20 12 0 0
BITMAP
0C0000
3F7FF0
61E000
40E000
C0E000
C07FE0
404000
404000
604000
30C000
1CC070
0FBFE0
ENDCHAR
STARTCHAR oe
ENCODING 339
SWIDTH 875 0
DWIDTH 21 0
BBX 21 13 0 -1
BITMAP
000200
000F80
0F10C0
3FE040
60E0C0
406180
C07700
C06C00
406000
60F000
339800
1F0FF8
0003C0
ENDCHAR
STARTCHAR Racute
ENCODING 340
SWIDTH 579 0
DWIDTH 14 0
BBX 13 20 0 -1
BITMAP
0080
0180
0200
0400
7F80
E1E0
8030
9018
1018
1070
17E0
1F00
1800
1C00
0E00
0B00
0980
08C0
0830
0018
ENDCHAR
STARTCHAR racute
ENCODING 341
SWIDTH 346 0
DWIDTH 8 0
BBX 8 16 0 0
BITMAP
04
0C
10
20
00
1E
FF
C0
40
40
40
40
60
20
20
20
ENDCHAR
STARTCHAR Rcommaaccent
ENCODING 342
SWIDTH 579 0
DWIDTH 14 0
BBX 13 23 0 -8
BITMAP
7F80
E1E0
8030
9018
1018
1070
17E0
1F00
1800
1C00
0E00
0B00
0980
08C0
0830
0018
0000
0200
0300
0100
0100
0300
0200
ENDCHAR
STARTCHAR rcommaaccent
ENCODING 343
SWIDTH 346 0
DWIDTH 8 0
BBX 8 19 0 -8
BITMAP
1E
FF
C0
40
40
40
40
60
20
20
20
00
00
10
18
08
08
18
10
ENDCHAR
STARTCHAR Rcaron
ENCODING 344
SWIDTH 579 0
DWIDTH 14 0
BBX 13 21 0 -1
BITMAP
0840
07C0
0300
0000
0000
7F80
E1E0
8030
9018
1018
1070
17E0
1F00
1800
1C00
0E00
0B00
0980
08C0
0830
0018
ENDCHAR
STARTCHAR rcaron
ENCODING 345
SWIDTH 346 0
DWIDTH 8 0
BBX 8 15 0 0
BITMAP
42
36
1C
00
1E
FF
C0
40
40
40
40
60
20
20
20
ENDCHAR
STARTCHAR Sacute
ENCODING 346
SWIDTH 627 0
DWIDTH 15 0
BBX 14 19 0 0
BITMAP
0080
0100
0200
0400
0000
0FF0
1818
1000
1800
0C00
0600
01C0
0070
4038
C00C
4004
6004
180C
07F8
ENDCHAR
STARTCHAR sacute
ENCODING 347
SWIDTH 514 0
DWIDTH 12 0
BBX 12 16 0 0
BITMAP
0180
0300
0600
0800
0000
1E00
7300
4100
4100
3000
1FC0
0060
0030
C030
7060
1FC0
ENDCHAR
STARTCHAR Scircumflex
ENCODING 348
SWIDTH 627 0
DWIDTH 15 0
BBX 14 22 0 0
BITMAP
0100
0180
03C0
02C0
0C60
0000
0000
0000
0FF0
1818
1000
1800
0C00
0600
01C0
0070
4038
C00C
4004
6004
180C
07F8
ENDCHAR
STARTCHAR scircumflex
ENCODING 349
SWIDTH 514 0
DWIDTH 12 0
BBX 12 18 0 0
BITMAP
0600
0200
0700
0D80
1880
0000
0000
1E00
7300
4100
4100
3000
1FC0
0060
0030
C030
7060
1FC0
ENDCHAR
STARTCHAR Scedilla
ENCODING 350
SWIDTH 627 0
DWIDTH 15 0
BBX 14 21 0 -7
BITMAP
0FF0
1818
1000
1800
0C00
0600
01C0
0070
4038
C00C
4004
6004
180C
07F8
0400
0400
0700
00C0
0060
0C60
03C0
ENDCHAR
STARTCHAR scedilla
ENCODING 351
SWIDTH 514 0
DWIDTH 12 0
BBX 12 18 0 -7
BITMAP
1E00
7300
4100
4100
3000
1FC0
0060
0030
C030
7060
1FC0
1800
0800
0E00
0180
0080
1880
0F80
ENDCHAR
STARTCHAR Scaron
ENCODING 352
SWIDTH 627 0
DWIDTH 15 0
BBX 14 19 0 0
BITMAP
0820
06C0
0180
0000
0000
0FF0
1818
1000
1800
0C00
0600
01C0
0070
4038
C00C
4004
6004
180C
07F8
ENDCHAR
STARTCHAR scaron
ENCODING 353
SWIDTH 514 0
DWIDTH 12 0
BBX 12 15 0 0
BITMAP
1080
0D80
0700
0000
1E00
7300
4100
4100
3000
1FC0
0060
0030
C030
7060
1FC0
ENDCHAR
STARTCHAR Tcommaaccent
ENCODING 354
SWIDTH 581 0
DWIDTH 14 0
BBX 16 21 0 -7
BITMAP
FFFC
018F
0180
0080
0080
0080
0080
0080
0080
00C0
00C0
00C0
0040
0060
0000
0080
00C0
0040
0040
00C0
0080
ENDCHAR
STARTCHAR tcommaaccent
ENCODING 355
SWIDTH 328 0
DWIDTH 8 0
BBX 8 23 0 -8
BITMAP
10
10
18
18
18
FF
38
18
18
18
18
18
18
18
08
00
00
10
18
18
18
18
10
ENDCHAR
STARTCHAR Tcaron
ENCODING 356
SWIDTH 581 0
DWIDTH 14 0
BBX 16 19 0 0
BITMAP
0840
07C0
0300
0000
0000
FFFC
018F
0180
0080
0080
0080
0080
0080
0080
00C0
00C0
00C0
0040
0060
ENDCHAR
STARTCHAR tcaron
ENCODING 357
SWIDTH 431 0
DWIDTH 10 0
BBX 10 18 0 0
BITMAP
0080
0080
00C0
10C0
1040
1840
1800
1800
FF00
3800
1800
1800
1800
1800
1800
1800
1800
0800
ENDCHAR
STARTCHAR Utilde
ENCODING 360
SWIDTH 571 0
DWIDTH 14 0
BBX 12 17 1 0
BITMAP
1840
2780
2100
0000
C040
8040
8040
8040
8040
8040
8060
8020
C060
4070
60F0
3F10
1C00
ENDCHAR
STARTCHAR utilde
ENCODING 361
SWIDTH 501 0
DWIDTH 12 0
BBX 12 16 0 0
BITMAP
1C60
33C0
2100
0000
0000
C000
C040
C040
C040
4040
40C0
60C0
21E0
3B20
1E20
0030
ENDCHAR
STARTCHAR Umacron
ENCODING 362
SWIDTH 571 0
DWIDTH 14 0
BBX 12 17 1 0
BITMAP
1F80
1980
0000
0000
C040
8040
8040
8040
8040
8040
8060
8020
C060
4070
60F0
3F10
1C00
ENDCHAR
STARTCHAR umacron
ENCODING 363
SWIDTH 501 0
DWIDTH 12 0
BBX 12 14 0 0
BITMAP
1F00
3980
0000
C000
C040
C040
C040
4040
40C0
60C0
21E0
3B20
1E20
0030
ENDCHAR
STARTCHAR Ubreve
ENCODING 364
SWIDTH 571 0
DWIDTH 14 0
BBX 12 16 1 0
BITMAP
1100
0F00
0000
C040
8040
8040
8040
8040
8040
8060
8020
C060
4070
60F0
3F10
1C00
ENDCHAR
STARTCHAR ubreve
ENCODING 365
SWIDTH 501 0
DWIDTH 12 0
BBX 12 14 0 0
BITMAP
1300
1E00
0000
C000
C040
C040
C040
4040
40C0
60C0
21E0
3B20
1E20
0030
ENDCHAR
STARTCHAR Uring
ENCODING 366
SWIDTH 571 0
DWIDTH 14 0
BBX 12 18 1 0
BITMAP
0600
0B00
1100
0A00
0400
C040
8040
8040
8040
8040
8040
8060
8020
C060
4070
60F0
3F10
1C00
ENDCHAR
STARTCHAR uring
ENCODING 367
SWIDTH 501 0
DWIDTH 12 0
BBX 12 14 0 0
BITMAP
0600
0900
1100
CB00
C440
C040
C040
4040
40C0
60C0
21E0
3B20
1E20
0030
ENDCHAR
STARTCHAR Uhungarumlaut
ENCODING 368
SWIDTH 571 0
DWIDTH 14 0
BBX 12 18 1 0
BITMAP
0800
1D00
1200
2400
0000
C040
8040
8040
8040
8040
8040
8060
8020
C060
4070
60F0
3F10
1C00
ENDCHAR
STARTCHAR uhungarumlaut
ENCODING 369
SWIDTH 501 0
DWIDTH 12 0
BBX 12 17 0 0
BITMAP
0400
0E80
0900
1200
0000
0000
C000
C040
C040
C040
4040
40C0
60C0
21E0
3B20
1E20
0030
ENDCHAR
STARTCHAR Uogonek
ENCODING 370
SWIDTH 571 0
DWIDTH 14 0
BBX 13 16 1 -4
BITMAP
4040
8040
8060
8060
8060
8060
8020
8020
4030
4070
60F0
3F18
1E60
0040
0040
0038
ENDCHAR
STARTCHAR uogonek
ENCODING 371
SWIDTH 501 0
DWIDTH 12 0
BBX 12 14 0 -3
BITMAP
4000
C040
C040
C040
4040
40C0
60C0
21E0
3B20
1E20
00F0
0080
0080
00F0
ENDCHAR
STARTCHAR Wcircumflex
ENCODING 372
SWIDTH 703 0
DWIDTH 17 0
BBX 16 22 0 0
BITMAP
0080
00C0
01E0
0360
0630
0000
0000
0000
0000
0000
8004
C006
C006
C003
C203
C101
4101
4181
4381
66C3
3C7E
183C
ENDCHAR
STARTCHAR wcircumflex
ENCODING 373
SWIDTH 656 0
DWIDTH 16 0
BBX 15 18 0 0
BITMAP
0100
0180
01C0
03E0
0660
0000
0000
0000
4000
4008
C104
C186
C182
C182
4182
63C6
3E7C
1C38
ENDCHAR
STARTCHAR Ycircumflex
ENCODING 374
SWIDTH 403 0
DWIDTH 10 0
BBX 9 22 0 0
BITMAP
0800
0C00
0E00
1F00
3300
0000
0000
C080
4080
6080
3180
1980
0F00
0300
0200
0200
0600
0400
0400
0400
0400
0400
ENDCHAR
STARTCHAR ycircumflex
ENCODING 375
SWIDTH 487 0
DWIDTH 12 0
BBX 11 30 0 -12
BITMAP
0400
0600
0700
0F80
1980
0000
0000
0040
8040
C040
C060
4060
4060
6060
2060
30E0
1F20
0420
0020
0020
0020
0020
0020
0020
0020
4060
6040
38C0
0F80
0300
ENDCHAR
STARTCHAR Ydieresis
ENCODING 376
SWIDTH 403 0
DWIDTH 10 0
BBX 9 19 0 0
BITMAP
3200
3300
3200
0000
C080
4080
6080
3180
1980
0F00
0300
0200
0200
0600
0400
0400
0400
0400
0400
ENDCHAR
STARTCHAR Zacute
ENCODING 377
SWIDTH 571 0
DWIDTH 14 0
BBX 13 20 0 0
BITMAP
0180
0300
0600
0400
0000
7E00
E300
0080
00C0
00C0
0080
0080
0FF0
1F80
0300
0200
0400
0C00
0CF8
0FE0
ENDCHAR
STARTCHAR zacute
ENCODING 378
SWIDTH 459 0
DWIDTH 11 0
BBX 10 17 0 0
BITMAP
0200
0C00
1800
1000
0000
7E00
C100
0100
0100
0300
1F80
7C00
0800
1800
3040
3FC0
1F00
ENDCHAR
STARTCHAR Zdotaccent
ENCODING 379
SWIDTH 571 0
DWIDTH 14 0
BBX 13 18 0 0
BITMAP
0400
0400
0000
7E00
E300
0080
00C0
00C0
0080
0080
0FF0
1F80
0300
0200
0400
0C00
0CF8
0FE0
ENDCHAR
STARTCHAR zdotaccent
ENCODING 380
SWIDTH 459 0
DWIDTH 11 0
BBX 10 16 0 0
BITMAP
0400
0400
0000
0000
7E00
C100
0100
0100
0300
1F80
7C00
0800
1800
3040
3FC0
1F00
ENDCHAR
STARTCHAR Zcaron
ENCODING 381
SWIDTH 571 0
DWIDTH 14 0
BBX 13 19 0 0
BITMAP
1080
0F80
0600
0000
7E00
E300
0080
00C0
00C0
0080
0080
0FF0
1F80
0300
0200
0400
0C00
0CF8
0FE0
ENDCHAR
STARTCHAR zcaron
ENCODING 382
SWIDTH 459 0
DWIDTH 11 0
BBX 10 17 0 0
BITMAP
4100
3600
0C00
0000
0000
7E00
C100
0100
0100
0300
1F80
7C00
0800
1800
3040
3FC0
1F00
ENDCHAR
STARTCHAR florin
ENCODING 402
SWIDTH 376 0
DWIDTH 9 0
BBX 13 23 -2 -6
BITMAP
01C0
03F0
0618
0408
0C00
0C00
0C00
0C00
0C00
1F80
35C0
0400
0400
0400
0400
0400
0400
0400
0C00
8C00
CC00
6C00
1C00
ENDCHAR
STARTCHAR AEacute
ENCODING 508
SWIDTH 960 0
DWIDTH 23 0
BBX 23 21 0 0
BITMAP
000600
000C00
001800
0FA000
10C000
204000
202FF8
202F84
403800
401800
401800
40180C
401FF8
7FFC00
C01800
401800
601800
601800
601800
201FFE
2017F8
ENDCHAR
STARTCHAR aeacute
ENCODING 509
SWIDTH 881 0
DWIDTH 21 0
BBX 21 18 0 -1
BITMAP
000800
003000
006000
004000
000000
0E0700
1B1C80
0190C0
00E040
006040
3FE180
60FF00
406000
C02000
401000
7FFC00
1F8FF8
000080
ENDCHAR
STARTCHAR Oslashacute
ENCODING 510
SWIDTH 609 0
DWIDTH 15 0
BBX 14 19 0 -2
BITMAP
0080
0300
0600
0400
0000
0C40
3FC0
60E0
40B0
C098
C108
410C
4304
620C
3208
1C70
0FC0
0C00
0800
ENDCHAR
STARTCHAR oslashacute
ENCODING 511
SWIDTH 487 0
DWIDTH 12 0
BBX 11 14 0 0
BITMAP
0300
0600
0C00
0000
0F40
3FC0
60C0
41E0
C320
C220
4660
6CC0
3BC0
3F00
ENDCHAR
STARTCHAR Scommaaccent
ENCODING 536
SWIDTH 627 0
DWIDTH 15 0
BBX 14 22 0 -8
BITMAP
0FF0
1818
1000
1800
0C00
0600
01C0
0070
4038
C00C
4004
6004
180C
07F8
0000
0000
0200
0300
0100
0100
0300
0200
ENDCHAR
STARTCHAR scommaaccent
ENCODING 537
SWIDTH 514 0
DWIDTH 12 0
BBX 12 19 0 -8
BITMAP
1E00
7300
4100
4100
3000
1FC0
0060
0030
C030
7060
1FC0
0000
0000
0400
0600
0200
0200
0600
0400
ENDCHAR
STARTCHAR circumflex
ENCODING 710
SWIDTH 375 0
DWIDTH 9 0
BBX 7 5 1 13
BITMAP
10
18
3C
6C
C6
ENDCHAR
STARTCHAR caron
ENCODING 711
SWIDTH 375 0
DWIDTH 9 0
BBX 7 3 1 12
BITMAP
86
6C
18
ENDCHAR
STARTCHAR breve
ENCODING 728
SWIDTH 224 0
DWIDTH 5 0
BBX 4 2 1 10
BITMAP
90
F0
ENDCHAR
STARTCHAR dotaccent
ENCODING 729
SWIDTH 152 0
DWIDTH 4 0
BBX 2 2 1 11
BITMAP
C0
C0
ENDCHAR
STARTCHAR ring
ENCODING 730
SWIDTH 333 0
DWIDTH 8 0
BBX 5 4 2 10
BITMAP
20
D0
88
F0
ENDCHAR
STARTCHAR ogonek
ENCODING 731
SWIDTH 254 0
DWIDTH 6 0
BBX 4 5 1 -4
BITMAP
60
C0
80
C0
30
ENDCHAR
STARTCHAR tilde
ENCODING 732
SWIDTH 402 0
DWIDTH 10 0
BBX 8 3 1 10
BITMAP
E1
9E
84
ENDCHAR
STARTCHAR hungarumlaut
ENCODING 733
SWIDTH 264 0
DWIDTH 6 0
BBX 5 4 1 10
BITMAP
40
C8
B0
A0
ENDCHAR
STARTCHAR Wgrave
ENCODING 7808
SWIDTH 703 0
DWIDTH 17 0
BBX 16 17 0 0
BITMAP
0180
00C0
0040
0000
0000
8004
C006
C006
C003
C203
C101
4101
4181
4381
66C3
3C7E
183C
ENDCHAR
STARTCHAR wgrave
ENCODING 7809
SWIDTH 656 0
DWIDTH 16 0
BBX 15 13 0 0
BITMAP
0180
00C0
0080
4000
4008
C104
C186
C182
C182
4182
63C6
3E7C
1C38
ENDCHAR
STARTCHAR Wacute
ENCODING 7810
SWIDTH 703 0
DWIDTH 17 0
BBX 16 17 0 0
BITMAP
00C0
0180
0300
0200
0000
8004
C006
C006
C003
C203
C101
4101
4181
4381
66C3
3C7E
183C
ENDCHAR
STARTCHAR wacute
ENCODING 7811
SWIDTH 656 0
DWIDTH 16 0
BBX 15 15 0 0
BITMAP
00C0
0180
0300
0200
0000
4000
4008
C104
C186
C182
C182
4182
63C6
3E7C
1C38
ENDCHAR
STARTCHAR Wdieresis
ENCODING 7812
SWIDTH 703 0
DWIDTH 17 0
BBX 16 17 0 0
BITMAP
0220
0760
0230
0000
0000
8004
C006
C006
C003
C203
C101
4101
4181
4381
66C3
3C7E
183C
ENDCHAR
STARTCHAR wdieresis
ENCODING 7813
SWIDTH 656 0
DWIDTH 16 0
BBX 15 13 0 0
BITMAP
0440
0660
0640
4000
4008
C104
C186
C182
C182
4182
63C6
3E7C
1C38
ENDCHAR
STARTCHAR Ygrave
ENCODING 7922
SWIDTH 403 0
DWIDTH 10 0
BBX 9 19 0 0
BITMAP
1800
0C00
0400
0000
C080
4080
6080
3180
1980
0F00
0300
0200
0200
0600
0400
0400
0400
0400
0400
ENDCHAR
STARTCHAR ygrave
ENCODING 7923
SWIDTH 487 0
DWIDTH 12 0
BBX 11 25 0 -12
BITMAP
0600
0300
0240
8040
C040
C060
4060
4060
6060
2060
30E0
1F20
0420
0020
0020
0020
0020
0020
0020
0020
4060
6040
38C0
0F80
0300
ENDCHAR
STARTCHAR endash
ENCODING 8211
SWIDTH 287 0
DWIDTH 7 0
BBX 7 2 0 6
BITMAP
3C
FE
ENDCHAR
STARTCHAR emdash
ENCODING 8212
SWIDTH 512 0
DWIDTH 12 0
BBX 12 2 0 6
BITMAP
07E0
FFF0
ENDCHAR
STARTCHAR quoteleft
ENCODING 8216
SWIDTH 102 0
DWIDTH 2 0
BBX 2 6 0 12
BITMAP
80
C0
C0
40
40
40
ENDCHAR
STARTCHAR quoteright
ENCODING 8217
SWIDTH 102 0
DWIDTH 2 0
BBX 2 6 0 12
BITMAP
80
C0
C0
40
40
40
ENDCHAR
STARTCHAR quotesinglbase
ENCODING 8218
SWIDTH 102 0
DWIDTH 2 0
BBX 1 6 1 -1
BITMAP
80
80
80
80
80
80
ENDCHAR
STARTCHAR quotedblleft
ENCODING 8220
SWIDTH 234 0
DWIDTH 6 0
BBX 5 7 0 12
BITMAP
10
98
D8
58
58
48
68
ENDCHAR
STARTCHAR quotedblright
ENCODING 8221
SWIDTH 234 0
DWIDTH 6 0
BBX 5 7 0 12
BITMAP
10
98
D8
58
58
48
68
ENDCHAR
STARTCHAR quotedblbase
ENCODING 8222
SWIDTH 341 0
DWIDTH 8 0
BBX 5 7 2 -3
BITMAP
90
90
90
90
D0
50
58
ENDCHAR
STARTCHAR dagger
ENCODING 8224
SWIDTH 375 0
DWIDTH 9 0
BBX 7 16 1 0
BITMAP
20
20
20
30
10
10
FE
90
10
18
18
18
18
18
18
18
ENDCHAR
STARTCHAR daggerdbl
ENCODING 8225
SWIDTH 375 0
DWIDTH 9 0
BBX 11 18 -1 0
BITMAP
0800
0800
0C00
0C00
0400
0400
1C00
FFE0
0400
0400
FFE0
0600
0600
0600
0600
0600
0600
0600
ENDCHAR
STARTCHAR bullet
ENCODING 8226
SWIDTH 341 0
DWIDTH 8 0
BBX 4 4 3 4
BITMAP
E0
F0
F0
E0
ENDCHAR
STARTCHAR ellipsis
ENCODING 8230
SWIDTH 612 0
DWIDTH 15 0
BBX 13 5 1 0
BITMAP
8430
6738
E738
E738
4230
ENDCHAR
STARTCHAR guilsinglleft
ENCODING 8249
SWIDTH 487 0
DWIDTH 12 0
BBX 11 10 0 0
BITMAP
0060
00C0
0380
0600
0C00
3000
6000
F800
3F80
00C0
ENDCHAR
STARTCHAR guilsinglright
ENCODING 8250
SWIDTH 403 0
DWIDTH 10 0
BBX 9 11 1 0
BITMAP
C000
E000
3C00
0700
0380
0300
0E00
1800
3000
C000
8000
ENDCHAR
STARTCHAR fraction
ENCODING 8260
SWIDTH 309 0
DWIDTH 7 0
BBX 7 18 0 0
BITMAP
02
02
02
04
04
04
0C
08
18
18
10
30
30
20
60
40
C0
80
ENDCHAR
STARTCHAR Euro
ENCODING 8364
SWIDTH 741 0
DWIDTH 18 0
BBX 17 17 0 0
BITMAP
000600
001F00
006200
00C000
01F000
7FF800
C20000
040000
040000
07F800
FC0000
080000
080000
040000
040000
071F80
01F800
ENDCHAR
STARTCHAR trademark
ENCODING 8482
SWIDTH 1116 0
DWIDTH 27 0
BBX 26 15 0 0
BITMAP
FF020080
3FFF8080
01878180
0181C180
0080E380
0081BF80
00818080
00818080
00818080
00818080
00C180C0
00C180C0
00C180C0
004180C0
00600040
ENDCHAR
STARTCHAR minus
ENCODING 8722
SWIDTH 287 0
DWIDTH 7 0
BBX 7 2 0 6
BITMAP
3C
FE
ENDCHAR
STARTCHAR commaaccent
ENCODING 63171
SWIDTH 375 0
DWIDTH 9 0
BBX 2 6 3 -8
BITMAP
80
C0
C0
C0
80
80
ENDCHAR
STARTCHAR fi
ENCODING 64257
SWIDTH 551 0
DWIDTH 13 0
BBX 11 18 0 -1
BITMAP
0700
0FC0
1860
1120
3100
2000
3000
3080
3080
7E80
DF80
18C0
08C0
0CC0
04C0
0640
0240
0080
ENDCHAR
STARTCHAR fl
ENCODING 64258
SWIDTH 723 0
DWIDTH 17 0
BBX 11 17 0 0
BITMAP
0700
0FC0
1860
1120
3080
2080
3080
3080
3080
7F80
DF80
1880
0880
0C80
0480
0680
0280
ENDCHAR
STARTCHAR .notdef
ENCODING -1
SWIDTH 375 0
DWIDTH 9 0
BBX 1 1 0 0
BITMAP
00
ENDCHAR
STARTCHAR .null
ENCODING -1
SWIDTH 0 0
DWIDTH 0 0
BBX 1 1 0 0
BITMAP
00
ENDCHAR
STARTCHAR nonmarkingreturn
ENCODING -1
SWIDTH 375 0
DWIDTH 9 0
BBX 1 1 0 0
BITMAP
00
ENDCHAR
ENDFONT
